<svg xmlns="http://www.w3.org/2000/svg" viewBox="0 0 663.74 435.01"><defs><style>.cls-1{fill:#506f9e;}.cls-10,.cls-11,.cls-2,.cls-3,.cls-4,.cls-5,.cls-6,.cls-7,.cls-8,.cls-9{fill:#f18536;}.cls-3{opacity:0.71;}.cls-4{opacity:0.65;}.cls-5{opacity:0.31;}.cls-6{opacity:0.29;}.cls-7{opacity:0.69;}.cls-8{opacity:0.92;}.cls-9{opacity:0.68;}.cls-10{opacity:0.86;}.cls-11{opacity:0.57;}</style></defs><g id="SVG"><rect class="cls-1" width="125.61" height="89.17"/><rect class="cls-1" y="92.53" width="125.61" height="59.52"/><rect class="cls-1" y="285.49" width="125.61" height="149.52"/><rect class="cls-1" x="271.05" y="284.29" width="125.76" height="150.72"/><path class="cls-1" d="M670.45,42.31H776.53c16.16.34,48.65,3.26,81.64,23.17,29.88,18,45.38,41.07,52.77,52.32C924.19,138,929.75,156,934.33,170.6a275.79,275.79,0,0,1,11,57.6c1.62,18.72.95,32.38,0,50.4-1.85,35.06-2.77,52.6-8.53,71A175.5,175.5,0,0,1,898,416.36c-21.81,23.13-44.54,34.25-56.25,39.84a215.64,215.64,0,0,1-86.12,20.64l-86.11.48.94-100.8,66.26-.48c8.31-.79,22.63-3.47,35.84-13.44,9-6.81,14-14.35,17.42-19.68,3.94-6.1,8.64-15,12.45-30.24,2.36-9.42,4-19.85,4.48-50.4.45-30.83.6-46.5-3-58.56-2.69-9-7.12-23.88-19.91-37.44-21.08-22.33-50.27-25.7-60.23-26.4l-53.32.48V42.31" transform="translate(-282.59 -42.31)"/><rect class="cls-1" x="271.36" width="126.35" height="152.05"/><polygon class="cls-2" points="381.21 160.01 386.92 160.01 386.92 175.69 404.61 175.69 404.61 182.53 386.92 182.53 386.92 198.01 381.21 198.01 381.21 182.89 364.29 183.25 364.29 175.69 381.21 174.97 381.21 160.01"/><polygon class="cls-2" points="345.93 224.91 351.64 224.91 351.64 240.59 369.33 240.59 369.33 247.43 351.64 247.43 351.64 262.91 345.93 262.91 345.93 247.79 329.01 248.15 329.01 240.59 345.93 239.87 345.93 224.91"/><polygon class="cls-2" points="338.37 200.14 344.08 200.14 344.08 215.83 361.77 215.83 361.77 222.67 344.08 222.67 344.08 238.15 338.37 238.15 338.37 223.03 321.45 223.39 321.45 215.83 338.37 215.11 338.37 200.14"/><polygon class="cls-2" points="344.13 160.01 349.84 160.01 349.84 175.69 367.53 175.69 367.53 182.53 349.84 182.53 349.84 198.01 344.13 198.01 344.13 182.89 327.21 183.25 327.21 175.69 344.13 174.97 344.13 160.01"/><polygon class="cls-2" points="366.09 192.15 371.8 192.15 371.8 207.83 389.49 207.83 389.49 214.67 371.8 214.67 371.8 230.15 366.09 230.15 366.09 215.03 349.17 215.39 349.17 207.83 366.09 207.11 366.09 192.15"/><polygon class="cls-2" points="376.17 233.19 381.88 233.19 381.88 248.87 399.57 248.87 399.57 255.71 381.88 255.71 381.88 271.19 376.17 271.19 376.17 256.07 359.25 256.43 359.25 248.87 376.17 248.15 376.17 233.19"/><polygon class="cls-3" points="421.41 233.69 429.41 233.69 429.41 254.69 454.41 254.69 454.41 264.69 429.41 264.69 429.41 286.69 421.41 286.69 421.41 265.61 397.41 266.11 397.41 255.56 421.41 254.56 421.41 233.69"/><polygon class="cls-4" points="403.41 203.65 411.41 203.65 411.41 224.65 436.41 224.65 436.41 234.65 411.41 234.65 411.41 256.65 403.41 256.65 403.41 235.57 379.41 236.07 379.41 225.53 403.41 224.52 403.41 203.65"/><polygon class="cls-5" points="485.61 142.81 493.61 142.81 493.61 163.81 518.61 163.81 518.61 173.81 493.61 173.81 493.61 195.81 485.61 195.81 485.61 174.73 461.61 175.23 461.61 164.69 485.61 163.68 485.61 142.81"/><polygon class="cls-6" points="483.63 185.15 491.63 185.15 491.63 206.15 516.63 206.15 516.63 216.15 491.63 216.15 491.63 238.15 483.63 238.15 483.63 217.06 459.63 217.56 459.63 207.02 483.63 206.02 483.63 185.15"/><polygon class="cls-6" points="485.61 220.57 493.61 220.57 493.61 241.57 518.61 241.57 518.61 251.57 493.61 251.57 493.61 273.57 485.61 273.57 485.61 252.49 461.61 252.99 461.61 242.45 485.61 241.44 485.61 220.57"/><polygon class="cls-6" points="465.99 260.19 473.99 260.19 473.99 281.19 498.99 281.19 498.99 291.19 473.99 291.19 473.99 313.19 465.99 313.19 465.99 292.11 441.99 292.61 441.99 282.06 465.99 281.06 465.99 260.19"/><rect class="cls-2" x="134.97" width="126.72" height="435.01"/><rect class="cls-2" y="160.01" width="299.85" height="118.27"/><polygon class="cls-2" points="299.85 160.01 349.84 160.01 349.84 162.01 338.37 162.01 338.37 181.27 317.41 181.27 317.41 189.01 324.84 189.01 324.84 211.65 301.29 211.65 301.29 223.71 324.84 223.31 324.84 238.15 308.49 238.15 308.85 250.21 327.21 250.21 327.21 273.97 299.85 273.97 299.85 278.28 291.57 278.28 291.57 160.01 299.85 160.01"/><polygon class="cls-7" points="421.41 238.15 429.41 238.15 429.41 259.15 454.41 259.15 454.41 269.15 429.41 269.15 429.41 291.15 421.41 291.15 421.41 270.06 397.41 270.56 397.41 260.02 421.41 259.02 421.41 238.15"/><polygon class="cls-5" points="444.57 219.15 450.28 219.15 450.28 234.83 467.97 234.83 467.97 241.67 450.28 241.67 450.28 257.15 444.57 257.15 444.57 242.03 427.65 242.39 427.65 234.83 444.57 234.11 444.57 219.15"/><polygon class="cls-8" points="334.33 243.91 340.04 243.91 340.04 259.6 357.73 259.6 357.73 266.44 340.04 266.44 340.04 281.92 334.33 281.92 334.33 266.8 317.41 267.16 317.41 259.6 334.33 258.88 334.33 243.91"/><polygon class="cls-9" points="330.69 203.31 336.4 203.31 336.4 218.99 354.09 218.99 354.09 225.83 336.4 225.83 336.4 241.31 330.69 241.31 330.69 226.19 313.77 226.55 313.77 218.99 330.69 218.27 330.69 203.31"/><polygon class="cls-10" points="331.3 169.31 337.01 169.31 337.01 185 354.7 185 354.7 191.84 337.01 191.84 337.01 207.32 331.3 207.32 331.3 192.2 314.38 192.56 314.38 185 331.3 184.28 331.3 169.31"/><polygon class="cls-8" points="358.53 167.31 364.24 167.31 364.24 182.99 381.93 182.99 381.93 189.83 364.24 189.83 364.24 205.31 358.53 205.31 358.53 190.19 341.61 190.55 341.61 182.99 358.53 182.27 358.53 167.31"/><polygon class="cls-9" points="366.09 209.07 371.8 209.07 371.8 224.75 389.49 224.75 389.49 231.59 371.8 231.59 371.8 247.07 366.09 247.07 366.09 231.95 349.17 232.31 349.17 224.75 366.09 224.03 366.09 209.07"/><polygon class="cls-3" points="428.61 154.32 436.61 154.32 436.61 175.32 461.61 175.32 461.61 185.32 436.61 185.32 436.61 207.32 428.61 207.32 428.61 186.23 404.61 186.73 404.61 176.19 428.61 175.19 428.61 154.32"/><polygon class="cls-5" points="444.57 219.15 450.28 219.15 450.28 234.83 467.97 234.83 467.97 241.67 450.28 241.67 450.28 257.15 444.57 257.15 444.57 242.03 427.65 242.39 427.65 234.83 444.57 234.11 444.57 219.15"/><polygon class="cls-11" points="390.21 171.51 398.21 171.51 398.21 192.51 423.21 192.51 423.21 202.51 398.21 202.51 398.21 224.51 390.21 224.51 390.21 203.43 366.21 203.93 366.21 193.38 390.21 192.38 390.21 171.51"/><polygon class="cls-11" points="457.11 173.64 465.11 173.64 465.11 194.64 490.11 194.64 490.11 204.64 465.11 204.64 465.11 226.64 457.11 226.64 457.11 205.56 433.11 206.06 433.11 195.52 457.11 194.51 457.11 173.64"/></g></svg>